<svg xmlns="http://www.w3.org/2000/svg" width="717.886" height="912.395" viewBox="0 0 717.886 912.395"><g transform="translate(-135 -44)"><g transform="translate(80.424 44)"><path d="M742.757,349.881c0,270.888-305.808,521.768-305.808,521.768-17.868,14.659-47.111,14.659-64.981,0,0,0-305.808-250.881-305.808-521.768,0-186.837,151.462-338.3,338.3-338.3S742.757,163.045,742.757,349.881Z" transform="translate(9.059 9.058)" fill="#ee3840" opacity="0.2"/><g transform="translate(54.576)"><path d="M413.518,0C215.6,0,54.576,161.021,54.576,358.94c0,64.817,16.726,133.628,49.711,204.516C130.333,619.428,166.551,676.88,211.94,734.22c76.944,97.2,152.806,159.831,156,162.448,12.779,10.484,29.18,15.726,45.582,15.726s32.8-5.243,45.582-15.726c3.192-2.62,79.052-65.245,156-162.448,45.388-57.338,81.607-114.79,107.653-170.763,32.985-70.888,49.711-139.7,49.711-204.516C772.457,161.021,611.436,0,413.518,0Zm169.73,707.937c-74.216,93.907-149.586,156.2-150.333,156.812-10.334,8.479-28.462,8.477-38.791,0-.752-.617-76.121-62.909-150.336-156.815-67.483-85.391-147.929-215.251-147.929-349,0-175.158,142.5-317.658,317.657-317.658s317.658,142.5,317.658,317.658C731.175,492.684,650.731,622.547,583.248,707.937Z" transform="translate(-54.576)" fill="#ee3840"/></g></g><g transform="translate(322 231)"><circle cx="170" cy="170" r="170" transform="translate(2 2)" fill="none" stroke="#ee3840" stroke-linecap="round" stroke-linejoin="round" stroke-width="35"/><line y2="68" transform="translate(172 104)" stroke-width="35" stroke="#ee3840" stroke-linecap="round" stroke-linejoin="round" fill="none"/><line transform="translate(172 241)" stroke-width="35" stroke="#ee3840" stroke-linecap="round" stroke-linejoin="round" fill="none"/></g></g></svg>