<svg xmlns="http://www.w3.org/2000/svg" xmlns:xlink="http://www.w3.org/1999/xlink" width="2752" height="574" viewBox="0 0 2752 574"><defs><clipPath id="b"><rect width="2752" height="574"/></clipPath></defs><g id="a" clip-path="url(#b)"><text transform="translate(59 436)" fill="#fff" font-size="425" font-family="Poppins-SemiBold, Poppins" font-weight="600"><tspan x="0" y="0">WellDone</tspan></text><g transform="translate(2776.33 582.324) rotate(180)"><g transform="translate(135 44)"><path d="M452.82,204.912c0,154.806-174.762,298.179-174.762,298.179-10.211,8.377-26.923,8.377-37.135,0,0,0-174.762-143.373-174.762-298.179,0-106.773,86.557-193.329,193.33-193.329S452.82,98.14,452.82,204.912Z" transform="translate(-54.363 0.213)" fill="#fff" opacity="0.2"/><g transform="translate(0)"><path d="M259.7,0C146.6,0,54.576,92.02,54.576,205.126c0,37.042,9.559,76.365,28.409,116.876,14.885,31.986,35.582,64.819,61.521,97.587,43.972,55.55,87.325,91.34,89.149,92.836a42.245,42.245,0,0,0,52.1,0c1.824-1.5,45.176-37.286,89.148-92.836,25.938-32.767,46.637-65.6,61.521-97.587,18.85-40.511,28.409-79.833,28.409-116.876C464.829,92.02,372.809,0,259.7,0Zm97,404.57c-42.413,53.666-85.485,89.264-85.912,89.614-5.906,4.845-16.266,4.844-22.168,0-.43-.352-43.5-35.951-85.914-89.616-38.565-48.8-84.538-123.011-84.538-199.444,0-100.1,81.435-181.535,181.534-181.535s181.535,81.436,181.535,181.535C441.237,281.558,395.265,355.771,356.7,404.57Z" transform="translate(-54.576)" fill="#fff"/></g></g></g><g transform="translate(2359 266.6)"><g transform="translate(0 20.4)"><path d="M77.069,162.207l-10.79-10.79C26.2,115.966,0,92.074,0,62.788,0,38.9,18.5,20.4,42.388,20.4A46.315,46.315,0,0,1,77.069,36.584,46.315,46.315,0,0,1,111.75,20.4c23.891,0,42.388,18.5,42.388,42.388,0,29.286-26.2,53.178-66.279,88.629Z" transform="translate(0 -20.4)" fill="#fff"/></g></g></g></svg>